TITLE ""
FILE "LR_black_phrase_E_C08.mp3" MP3
  TRACK 01 AUDIO
    TITLE "LR_black_phrase_E_C08_001"
    INDEX 01 00:00:00
  TRACK 02 AUDIO
    TITLE "LR_black_phrase_E_C08_002"
    INDEX 01 00:00:14
  TRACK 03 AUDIO
    TITLE "LR_black_phrase_E_C08_003"
    INDEX 01 00:01:37
  TRACK 04 AUDIO
    TITLE "LR_black_phrase_E_C08_004"
    INDEX 01 00:01:65
  TRACK 05 AUDIO
    TITLE "LR_black_phrase_E_C08_005"
    INDEX 01 00:04:10
  TRACK 06 AUDIO
    TITLE "LR_black_phrase_E_C08_006"
    INDEX 01 00:04:65
  TRACK 07 AUDIO
    TITLE "LR_black_phrase_E_C08_007"
    INDEX 01 00:07:08
  TRACK 08 AUDIO
    TITLE "LR_black_phrase_E_C08_008"
    INDEX 01 00:08:16
  TRACK 09 AUDIO
    TITLE "LR_black_phrase_E_C08_009"
    INDEX 01 00:09:29
  TRACK 10 AUDIO
    TITLE "LR_black_phrase_E_C08_010"
    INDEX 01 00:09:62
  TRACK 11 AUDIO
    TITLE "LR_black_phrase_E_C08_011"
    INDEX 01 00:11:67
  TRACK 12 AUDIO
    TITLE "LR_black_phrase_E_C08_012"
    INDEX 01 00:12:49
  TRACK 13 AUDIO
    TITLE "LR_black_phrase_E_C08_013"
    INDEX 01 00:14:55
  TRACK 14 AUDIO
    TITLE "LR_black_phrase_E_C08_014"
    INDEX 01 00:15:55
  TRACK 15 AUDIO
    TITLE "LR_black_phrase_E_C08_015"
    INDEX 01 00:17:05
  TRACK 16 AUDIO
    TITLE "LR_black_phrase_E_C08_016"
    INDEX 01 00:17:24
  TRACK 17 AUDIO
    TITLE "LR_black_phrase_E_C08_017"
    INDEX 01 00:19:39
  TRACK 18 AUDIO
    TITLE "LR_black_phrase_E_C08_018"
    INDEX 01 00:20:13
  TRACK 19 AUDIO
    TITLE "LR_black_phrase_E_C08_019"
    INDEX 01 00:22:26
  TRACK 20 AUDIO
    TITLE "LR_black_phrase_E_C08_020"
    INDEX 01 00:23:19
  TRACK 21 AUDIO
    TITLE "LR_black_phrase_E_C08_021"
    INDEX 01 00:24:44
  TRACK 22 AUDIO
    TITLE "LR_black_phrase_E_C08_022"
    INDEX 01 00:24:64
  TRACK 23 AUDIO
    TITLE "LR_black_phrase_E_C08_023"
    INDEX 01 00:26:53
  TRACK 24 AUDIO
    TITLE "LR_black_phrase_E_C08_024"
    INDEX 01 00:27:25
  TRACK 25 AUDIO
    TITLE "LR_black_phrase_E_C08_025"
    INDEX 01 00:29:14
  TRACK 26 AUDIO
    TITLE "LR_black_phrase_E_C08_026"
    INDEX 01 00:30:15
  TRACK 27 AUDIO
    TITLE "LR_black_phrase_E_C08_027"
    INDEX 01 00:31:32
  TRACK 28 AUDIO
    TITLE "LR_black_phrase_E_C08_028"
    INDEX 01 00:31:64
  TRACK 29 AUDIO
    TITLE "LR_black_phrase_E_C08_029"
    INDEX 01 00:34:39
  TRACK 30 AUDIO
    TITLE "LR_black_phrase_E_C08_030"
    INDEX 01 00:35:18
  TRACK 31 AUDIO
    TITLE "LR_black_phrase_E_C08_031"
    INDEX 01 00:37:68
  TRACK 32 AUDIO
    TITLE "LR_black_phrase_E_C08_032"
    INDEX 01 00:38:72
  TRACK 33 AUDIO
    TITLE "LR_black_phrase_E_C08_033"
    INDEX 01 00:40:22
  TRACK 34 AUDIO
    TITLE "LR_black_phrase_E_C08_034"
    INDEX 01 00:40:49
  TRACK 35 AUDIO
    TITLE "LR_black_phrase_E_C08_035"
    INDEX 01 00:42:60
  TRACK 36 AUDIO
    TITLE "LR_black_phrase_E_C08_036"
    INDEX 01 00:43:40
  TRACK 37 AUDIO
    TITLE "LR_black_phrase_E_C08_037"
    INDEX 01 00:45:46
  TRACK 38 AUDIO
    TITLE "LR_black_phrase_E_C08_038"
    INDEX 01 00:46:44
  TRACK 39 AUDIO
    TITLE "LR_black_phrase_E_C08_039"
    INDEX 01 00:48:01
  TRACK 40 AUDIO
    TITLE "LR_black_phrase_E_C08_040"
    INDEX 01 00:48:21
  TRACK 41 AUDIO
    TITLE "LR_black_phrase_E_C08_041"
    INDEX 01 00:50:71
  TRACK 42 AUDIO
    TITLE "LR_black_phrase_E_C08_042"
    INDEX 01 00:51:39
  TRACK 43 AUDIO
    TITLE "LR_black_phrase_E_C08_043"
    INDEX 01 00:54:14
  TRACK 44 AUDIO
    TITLE "LR_black_phrase_E_C08_044"
    INDEX 01 00:55:07
  TRACK 45 AUDIO
    TITLE "LR_black_phrase_E_C08_045"
    INDEX 01 00:56:30
  TRACK 46 AUDIO
    TITLE "LR_black_phrase_E_C08_046"
    INDEX 01 00:56:56
  TRACK 47 AUDIO
    TITLE "LR_black_phrase_E_C08_047"
    INDEX 01 00:59:54
  TRACK 48 AUDIO
    TITLE "LR_black_phrase_E_C08_048"
    INDEX 01 01:00:28
  TRACK 49 AUDIO
    TITLE "LR_black_phrase_E_C08_049"
    INDEX 01 01:03:27
  TRACK 50 AUDIO
    TITLE "LR_black_phrase_E_C08_050"
    INDEX 01 01:04:28
  TRACK 51 AUDIO
    TITLE "LR_black_phrase_E_C08_051"
    INDEX 01 01:05:39
  TRACK 52 AUDIO
    TITLE "LR_black_phrase_E_C08_052"
    INDEX 01 01:05:67
  TRACK 53 AUDIO
    TITLE "LR_black_phrase_E_C08_053"
    INDEX 01 01:07:48
  TRACK 54 AUDIO
    TITLE "LR_black_phrase_E_C08_054"
    INDEX 01 01:08:28
  TRACK 55 AUDIO
    TITLE "LR_black_phrase_E_C08_055"
    INDEX 01 01:10:07
  TRACK 56 AUDIO
    TITLE "LR_black_phrase_E_C08_056"
    INDEX 01 01:11:12
  TRACK 57 AUDIO
    TITLE "LR_black_phrase_E_C08_057"
    INDEX 01 01:12:49
  TRACK 58 AUDIO
    TITLE "LR_black_phrase_E_C08_058"
    INDEX 01 01:13:05
  TRACK 59 AUDIO
    TITLE "LR_black_phrase_E_C08_059"
    INDEX 01 01:15:02
  TRACK 60 AUDIO
    TITLE "LR_black_phrase_E_C08_060"
    INDEX 01 01:15:55
  TRACK 61 AUDIO
    TITLE "LR_black_phrase_E_C08_061"
    INDEX 01 01:17:52
  TRACK 62 AUDIO
    TITLE "LR_black_phrase_E_C08_062"
    INDEX 01 01:18:50
  TRACK 63 AUDIO
    TITLE "LR_black_phrase_E_C08_063"
    INDEX 01 01:19:67
  TRACK 64 AUDIO
    TITLE "LR_black_phrase_E_C08_064"
    INDEX 01 01:20:15
  TRACK 65 AUDIO
    TITLE "LR_black_phrase_E_C08_065"
    INDEX 01 01:22:04
  TRACK 66 AUDIO
    TITLE "LR_black_phrase_E_C08_066"
    INDEX 01 01:22:49
  TRACK 67 AUDIO
    TITLE "LR_black_phrase_E_C08_067"
    INDEX 01 01:24:40
  TRACK 68 AUDIO
    TITLE "LR_black_phrase_E_C08_068"
    INDEX 01 01:25:34
  TRACK 69 AUDIO
    TITLE "LR_black_phrase_E_C08_069"
    INDEX 01 01:26:47
  TRACK 70 AUDIO
    TITLE "LR_black_phrase_E_C08_070"
    INDEX 01 01:26:67
  TRACK 71 AUDIO
    TITLE "LR_black_phrase_E_C08_071"
    INDEX 01 01:29:61
  TRACK 72 AUDIO
    TITLE "LR_black_phrase_E_C08_072"
    INDEX 01 01:30:31
  TRACK 73 AUDIO
    TITLE "LR_black_phrase_E_C08_073"
    INDEX 01 01:33:26
  TRACK 74 AUDIO
    TITLE "LR_black_phrase_E_C08_074"
    INDEX 01 01:34:27
  TRACK 75 AUDIO
    TITLE "LR_black_phrase_E_C08_075"
    INDEX 01 01:35:27
  TRACK 76 AUDIO
    TITLE "LR_black_phrase_E_C08_076"
    INDEX 01 01:35:56
  TRACK 77 AUDIO
    TITLE "LR_black_phrase_E_C08_077"
    INDEX 01 01:37:43
  TRACK 78 AUDIO
    TITLE "LR_black_phrase_E_C08_078"
    INDEX 01 01:38:25
  TRACK 79 AUDIO
    TITLE "LR_black_phrase_E_C08_079"
    INDEX 01 01:40:12
  TRACK 80 AUDIO
    TITLE "LR_black_phrase_E_C08_080"
    INDEX 01 01:41:17
  TRACK 81 AUDIO
    TITLE "LR_black_phrase_E_C08_081"
    INDEX 01 01:42:38
  TRACK 82 AUDIO
    TITLE "LR_black_phrase_E_C08_082"
    INDEX 01 01:42:68
  TRACK 83 AUDIO
    TITLE "LR_black_phrase_E_C08_083"
    INDEX 01 01:44:63
  TRACK 84 AUDIO
    TITLE "LR_black_phrase_E_C08_084"
    INDEX 01 01:45:43
  TRACK 85 AUDIO
    TITLE "LR_black_phrase_E_C08_085"
    INDEX 01 01:47:39
  TRACK 86 AUDIO
    TITLE "LR_black_phrase_E_C08_086"
    INDEX 01 01:48:37
  TRACK 87 AUDIO
    TITLE "LR_black_phrase_E_C08_087"
    INDEX 01 01:49:52
  TRACK 88 AUDIO
    TITLE "LR_black_phrase_E_C08_088"
    INDEX 01 01:49:72
  TRACK 89 AUDIO
    TITLE "LR_black_phrase_E_C08_089"
    INDEX 01 01:52:09
  TRACK 90 AUDIO
    TITLE "LR_black_phrase_E_C08_090"
    INDEX 01 01:52:60
  TRACK 91 AUDIO
    TITLE "LR_black_phrase_E_C08_091"
    INDEX 01 01:54:73
  TRACK 92 AUDIO
    TITLE "LR_black_phrase_E_C08_092"
    INDEX 01 01:55:72
  TRACK 93 AUDIO
    TITLE "LR_black_phrase_E_C08_093"
    INDEX 01 01:57:10
  TRACK 94 AUDIO
    TITLE "LR_black_phrase_E_C08_094"
    INDEX 01 01:57:32
  TRACK 95 AUDIO
    TITLE "LR_black_phrase_E_C08_095"
    INDEX 01 01:59:39
  TRACK 96 AUDIO
    TITLE "LR_black_phrase_E_C08_096"
    INDEX 01 02:00:13
  TRACK 97 AUDIO
    TITLE "LR_black_phrase_E_C08_097"
    INDEX 01 02:02:19
  TRACK 98 AUDIO
    TITLE "LR_black_phrase_E_C08_098"
    INDEX 01 02:03:23
  TRACK 99 AUDIO
    TITLE "LR_black_phrase_E_C08_099"
    INDEX 01 02:04:26
  TRACK 100 AUDIO
    TITLE "LR_black_phrase_E_C08_100"
    INDEX 01 02:04:54
  TRACK 101 AUDIO
    TITLE "LR_black_phrase_E_C08_101"
    INDEX 01 02:06:62
  TRACK 102 AUDIO
    TITLE "LR_black_phrase_E_C08_102"
    INDEX 01 02:07:40
  TRACK 103 AUDIO
    TITLE "LR_black_phrase_E_C08_103"
    INDEX 01 02:09:47
  TRACK 104 AUDIO
    TITLE "LR_black_phrase_E_C08_104"
    INDEX 01 02:10:50
  TRACK 105 AUDIO
    TITLE "LR_black_phrase_E_C08_105"
    INDEX 01 02:11:69
  TRACK 106 AUDIO
    TITLE "LR_black_phrase_E_C08_106"
    INDEX 01 02:12:22
  TRACK 107 AUDIO
    TITLE "LR_black_phrase_E_C08_107"
    INDEX 01 02:14:13
  TRACK 108 AUDIO
    TITLE "LR_black_phrase_E_C08_108"
    INDEX 01 02:14:64
  TRACK 109 AUDIO
    TITLE "LR_black_phrase_E_C08_109"
    INDEX 01 02:16:55
  TRACK 110 AUDIO
    TITLE "LR_black_phrase_E_C08_110"
    INDEX 01 02:17:52
  TRACK 111 AUDIO
    TITLE "LR_black_phrase_E_C08_111"
    INDEX 01 02:18:62
  TRACK 112 AUDIO
    TITLE "LR_black_phrase_E_C08_112"
    INDEX 01 02:19:16
  TRACK 113 AUDIO
    TITLE "LR_black_phrase_E_C08_113"
    INDEX 01 02:21:52
  TRACK 114 AUDIO
    TITLE "LR_black_phrase_E_C08_114"
    INDEX 01 02:22:24
  TRACK 115 AUDIO
    TITLE "LR_black_phrase_E_C08_115"
    INDEX 01 02:24:60
  TRACK 116 AUDIO
    TITLE "LR_black_phrase_E_C08_116"
    INDEX 01 02:25:54
  TRACK 117 AUDIO
    TITLE "LR_black_phrase_E_C08_117"
    INDEX 01 02:26:65
  TRACK 118 AUDIO
    TITLE "LR_black_phrase_E_C08_118"
    INDEX 01 02:27:10
  TRACK 119 AUDIO
    TITLE "LR_black_phrase_E_C08_119"
    INDEX 01 02:28:64
  TRACK 120 AUDIO
    TITLE "LR_black_phrase_E_C08_120"
    INDEX 01 02:29:34
  TRACK 121 AUDIO
    TITLE "LR_black_phrase_E_C08_121"
    INDEX 01 02:31:13
